<?xml version="1.0" encoding="utf-8"?>
<!-- Generator: Adobe Illustrator 25.0.0, SVG Export Plug-In . SVG Version: 6.00 Build 0)  -->
<svg version="1.1" id="Capa_1" xmlns="http://www.w3.org/2000/svg" xmlns:xlink="http://www.w3.org/1999/xlink" x="0px" y="0px"
	 viewBox="0 0 595.3 841.9" style="enable-background:new 0 0 595.3 841.9;" xml:space="preserve">
<style type="text/css">
	.st0{fill:#C4C4C4;stroke:#000000;stroke-width:10;stroke-miterlimit:10;}
	.st1{fill:#FFFFFF;stroke:#000000;stroke-miterlimit:10;}
	.st2{fill:#C5C5C5;stroke:#000000;stroke-width:10;stroke-miterlimit:10;}
	.st3{fill:#020203;}
	.st4{font-family:'BritannicBold';}
	.st5{font-size:70px;}
</style>
<g>
	<path class="st0" d="M506.5,462.3c15.4,0,15.3,3,16.1,17.9c0.2,3.2,1.7,6.4,2.6,9.6c0.7,2.8,1.5,5.5,2.2,8.3
		c1.5,6.2,2.9,12.4,4.4,18.6c3.6,9.7,7.3,19.3,10.9,29c4.9,20.9,3.9,41.6-2.2,62.2c-2.9,5.5-5.8,11-8.8,16.6
		c-1.5,2.1-2.9,4.1-4.4,6.2c-0.7,0.7-1.5,1.4-2.2,2c-5.1,4.8-10.2,6.7-15.3,11.5c-0.7,0.7-1.4,1.4-2.2,2.1c-2.2,1.4-4.4,2.8-6.6,4.1
		c-5.8,2.8-11.7,5.5-17.5,8.3c-7.3,1.4-14.6,2.8-21.9,4.2c-5.1,0.7-10.2,1.4-15.3,2.1c-19.7,2.8-39.4,5.5-59.1,8.3
		c-5.1,0.7-10.2,1.4-15.3,2.1c-13.1,2.1-26.2,4.1-39.4,6.2c-3.6,1.4-7.3,2.8-10.9,4.1c-1.5,0.7-2.9,1.4-4.4,2.1
		c-2.2,1.4-4.4,2.8-6.5,4.1c-2.2,1.4-4.4,2.7-6.6,4.1c-0.7,0.7-1.4,1.4-2.2,2.1c-0.7,0.7-1.5,1.4-2.2,2.1c-0.7,0.7-1.5,1.4-2.2,2.1
		c-0.7,0.7-1.5,1.4-2.2,2.1c-2.2,2.8-4.4,5.6-6.6,8.3c-3-2.1-6-4.2-8.9-6.2c-0.7-0.7-1.5-1.4-2.2-2.1c-0.7-0.7-1.5-1.4-2.2-2.1
		c-0.7-0.7-1.5-1.4-2.2-2.1c-0.7-0.7-1.5-1.4-2.2-2.1c-0.7-0.7-1.5-1.4-2.2-2.1c-0.7-0.7-1.4-1.4-2.2-2.1c-2.2-1.4-4.4-2.8-6.6-4.1
		c-1.5-0.7-2.9-1.4-4.4-2c-1.5-0.7-2.9-1.4-4.4-2.1c-1.4-0.7-2.9-1.4-4.3-2.1c-2.2-0.7-4.4-1.4-6.6-2.1c-8-1.4-16-2.8-24-4.1
		c-5.1-0.7-10.2-1.4-15.3-2.1c-19.7-2.8-39.4-5.5-59.1-8.3c-5.1-0.7-10.2-1.4-15.3-2.1c-12.4-2.1-24.8-4.1-37.2-6.2
		c-1.5-0.7-2.9-1.4-4.4-2.1c-2.9-1.4-5.8-2.8-8.8-4.1c-1.5-0.7-2.9-1.4-4.4-2c-2.9-2.1-5.8-4.2-8.7-6.2c-0.7-0.7-1.4,1.6-2.2,0.9
		c-0.7-0.7-1.5-1.4-2.2-2.1c-2.2-2.1-4.4-4.1-6.6-6.2c-0.7-0.7-1.5-1.4-2.2-2c-0.7-0.7-1.5-1.4-2.2-2.1c-1.5-2.1-2.9-4.2-4.4-6.2
		c-1.5-2.1-2.9-4.1-4.4-6.2c-0.7-1.4-1.5-2.8-2.2-4.1c-0.7-1.4-1.5-2.8-2.2-4.1c-2.3-11.7-5.4-23.3-6.7-35.1
		c-1.7-15.7,3-30.4,9.3-44.9c3.3-7.4,4.1-15.7,6.1-23.6c2.2-9,4.4-17.9,6.6-26.9c0.3-0.2,0.7-0.4,0.8-0.7
		c1.7-15.5,1.7-18.5,19.5-18.5 M506.5,462.3 M70.4,462.3"/>
	<path class="st1" d="M62.8,476.9"/>
	<path class="st2" d="M517.9,464.3c6.9-1.7,12.1-2.9,14-13.1c1.5-4.8,2.9-9.7,4.4-14.5c0.7-2.1,1.5-4.1,2.2-6.2
		c1.5-4.8,2.9-9.7,4.4-14.5c-2.6-1.4-5.2-4-7.8-4.1c-11.6-0.5-23.2-2.9-34.7-3.4c-3.4-0.1-6.7-2.5-10-3.9c-2.2-1.4-4.4-2.8-6.6-4.1
		c-2.2-1.4-4.4-2.8-6.5-4.2c-3.6-2.1-7.3-4.1-10.9-6.2c-1.5-0.7-2.9-1.4-4.4-2.1c-10.2-4.8-20.4-9.7-30.6-14.5
		c-1.4-0.7-2.9-1.4-4.3-2.1c-2.2-0.7-4.4-1.4-6.6-2c-1.4-0.7-2.9-1.4-4.3-2.1c-2.2-0.7-4.4-1.4-6.6-2.1c-2.2-0.7-4.4-1.4-6.6-2.1
		c-2.2-0.7-4.4-1.4-6.6-2.1c-2.2-0.7-4.4-1.4-6.6-2.1c-5.8-1.4-11.7-2.8-17.5-4.1c-2.9-0.7-5.8-1.4-8.7-2.1c-3.7-0.7-7.3-1.4-11-2.1
		c-30.7-1.4-61.3-2.8-92-4.1c-18.2,2.8-36.5,5.5-54.7,8.3c-8,2.1-16.1,4.1-24.1,6.2c-2.2,0.7-4.4,1.4-6.5,2.1
		c-2.2,0.7-4.4,1.4-6.6,2.1c-3.6,1.4-7.3,2.8-10.9,4.1c-3.6,1.4-7.3,2.8-10.9,4.1c-1.5,0.7-2.9,1.4-4.4,2.1
		c-1.5,0.7-2.9,1.4-4.4,2.1c-1.5,0.7-2.9,1.4-4.4,2.1c-1.5,0.7-2.9,1.4-4.4,2.1c-4.4,2.1-8.8,4.1-13.1,6.2c-1.5,0.7-2.9,1.4-4.4,2
		c-2.2,1.4-4.4,2.8-6.5,4.2c-1.5,0.7-2.9,1.4-4.4,2c-2.2,1.4-4.4,2.8-6.5,4.2c-2.2,1.4-4.4,2.8-6.6,4.1c-3.3,1.4-6.5,3.8-9.8,3.9
		c-11.6,0.5-23.2,2.9-34.8,3.4c-2.7,0.1-5.3,2.7-8,4.2c0.7,2.1,1.5,4.1,2.2,6.2c1.5,4.8,2.9,9.7,4.4,14.5c0.7,2.1,1.5,4.1,2.2,6.2
		c1.5,4.8,2.9,9.7,4.4,14.5c0.7,2.1,1.5,4.1,2.2,6.2c4.7,1.5,9.4,1.4,14.2,1.4L517.9,464.3z"/>
</g>
<g>
	<text transform="matrix(1.4434 0 0 1 221.0583 437.267)" class="st3 st4 st5">CA</text>
</g>
</svg>
