<?xml version="1.0" encoding="utf-8"?>
<!-- Generator: Adobe Illustrator 25.0.0, SVG Export Plug-In . SVG Version: 6.00 Build 0)  -->
<svg version="1.1" id="_x30_" xmlns="http://www.w3.org/2000/svg" xmlns:xlink="http://www.w3.org/1999/xlink" x="0px" y="0px"
	 viewBox="0 0 595.3 841.9" style="enable-background:new 0 0 595.3 841.9;" xml:space="preserve">
<style type="text/css">
	.st0{fill:#1D1D1B;stroke:#000000;stroke-width:0.7087;stroke-linecap:round;stroke-linejoin:round;stroke-miterlimit:10;}
	.st1{fill:#FFFFFF;stroke:#000000;stroke-width:0.7087;stroke-linecap:round;stroke-linejoin:round;stroke-miterlimit:10;}
</style>
<g id="LWPOLYLINE">
	<path class="st0" d="M178.9,841.5h237.3c23.8,0,43.1-19.3,43.1-43.1c0,0,0-754.9,0-754.9c0-23.8-19.3-43.1-43.1-43.1
		c0,0-237.3,0-237.3,0c-23.8,0-43.1,19.3-43.1,43.1c0,0,0,754.9,0,754.9C135.7,822.2,155,841.5,178.9,841.5z"/>
</g>
<g id="LWPOLYLINE_1_">
	<path class="st1" d="M178.9,819.9h237.3c11.9,0,21.6-9.7,21.6-21.6c0,0,0-754.9,0-754.9c0-11.9-9.7-21.6-21.6-21.6
		c0,0-237.3,0-237.3,0c-11.9,0-21.6,9.7-21.6,21.6c0,0,0,754.9,0,754.9C157.3,810.3,167,819.9,178.9,819.9z"/>
</g>
<g>
	<path d="M182.3,154.9c0.9-8.8,1.5-16,1.9-21.8c0.7-10.2,1.5-24.2,2.3-42c0.6-12.4,0.8-21.1,0.8-26.2v-6c7.8,0.1,13.2,0.1,16.2,0.1
		c2,0,7,0,15.2-0.1l-3.3,52.5l-1.7,43.5l-15.2-0.1C196.2,154.7,190.8,154.8,182.3,154.9z M217.5,104.2l15.8-21.4L246,65l3.9-6
		c8.7,0.1,14.6,0.1,17.7,0.1c0.8,0,6.4,0,16.8-0.1l-29.7,37.4l-5.6,7.5l5.2,8.3l29.4,42.7l-17.3-0.1c-3.8,0-10.1,0-19.1,0.1
		C241.4,143.5,231.4,126.6,217.5,104.2z"/>
	<path d="M291.9,154.9l2-33.9l1.1-26.5l0.1-11.4c5.2,0.1,9.7,0.1,13.6,0.1c4.5,0,8.8,0,13-0.1l-0.5,9.4c1.5-1.9,2.7-3.3,3.7-4.3
		c1-1,2.2-2,3.7-2.9c1.5-0.9,3-1.6,4.5-2.2c1.5-0.5,3.3-1,5.2-1.3c1.9-0.3,3.9-0.5,6-0.5c2.4,0,4.6,0.2,6.6,0.6
		c2,0.4,3.8,0.9,5.2,1.5c1.5,0.6,2.7,1.3,3.8,2.1c1.1,0.8,2,1.7,2.8,2.7c0.8,1,1.8,2.5,2.8,4.4c2.1-3,4.2-5.3,6.5-6.8
		c2.3-1.5,4.9-2.7,7.8-3.4c2.9-0.7,5.9-1.1,9-1.1c4.1,0,7.9,0.6,11.5,1.8c3.6,1.2,6.6,3.2,8.9,6.1s3.5,6.6,3.5,11.2
		c0,2.2-0.2,5.4-0.5,9.8c-0.3,4.4-0.7,11.8-1.3,22.5s-0.8,18.1-0.9,22.3c-4.3-0.1-8.5-0.1-12.5-0.1c-4.9,0-10.1,0-15.5,0.1
		c0.5-6,1-13.4,1.5-22.4c0.5-9,0.7-15.2,0.7-18.7c0-3-0.4-5.3-1.1-6.8c-0.7-1.5-1.6-2.5-2.7-3.1c-1.1-0.5-2.3-0.8-3.6-0.8
		c-1.4,0-2.6,0.3-3.7,0.8c-1.1,0.6-2.1,1.4-3,2.6c-1.1,1.6-2,3.5-2.7,5.9c-0.6,1.8-1,4.7-1.3,8.4c-0.3,3.8-0.6,8.9-0.8,15.2
		l-0.6,18.8c-5-0.1-9.5-0.1-13.6-0.1c-4.1,0-9,0-14.5,0.1c0.4-4.2,0.9-11.2,1.5-21c0.6-9.8,0.9-16.4,0.9-19.8c0-2.8-0.3-4.9-0.8-6.3
		s-1.3-2.5-2.4-3.4c-1-0.8-2.4-1.3-4-1.3c-1.8,0-3.4,0.5-4.8,1.6c-1.4,1.1-2.5,2.6-3.5,4.6c-1,2-1.6,4.8-2,8.3
		c-0.4,3.5-0.8,8.9-1.1,16.2c-0.3,7.3-0.5,14.3-0.6,21c-5.7-0.1-10.3-0.1-13.8-0.1C302.5,154.7,297.6,154.8,291.9,154.9z"/>
</g>
</svg>
