<?xml version="1.0" encoding="utf-8"?>
<!-- Generator: Adobe Illustrator 25.0.0, SVG Export Plug-In . SVG Version: 6.00 Build 0)  -->
<svg version="1.1" id="Capa_1" xmlns="http://www.w3.org/2000/svg" xmlns:xlink="http://www.w3.org/1999/xlink" x="0px" y="0px"
	 viewBox="0 0 595.3 841.9" style="enable-background:new 0 0 595.3 841.9;" xml:space="preserve">
<style type="text/css">
	.st0{fill:#D6D6D6;stroke:#1D1D1B;stroke-width:13;}
	.st1{fill:#CDCCCC;stroke:#1D1D1B;stroke-width:13;}
	.st2{font-family:'BritannicBold';}
	.st3{font-size:74.5806px;}
</style>
<g>
	<g>
		<path class="st0" d="M65.6,377.7c-1.3-6.5-2.7-13.1-6.3-19c-6.4-27.3-10.4-54.7-8.2-82.7c1.1-14.5,3.5-28.8,7.1-43
			c1.7-6.8,4.7-7.6,11.7-4.3c73.1,34.9,146.4,35,219.6,0c4.2-2,7-2.2,11.4-0.2c72.4,32.8,145.1,32.8,217.5,0.1
			c8-3.6,10.1-1.7,11.9,5.3c10.5,41.7,9.7,83.2-2,124.6c-2.1,6.3-4.2,12.7-6.2,19c-16,39.1-39.7,73.5-73.4,102.3
			c-42.6,36.4-92.9,59.2-150.6,67.6c-17.4,2.5-35-4.7-51.7-10c-85.1-26.9-144.6-78-177.4-154C68.1,381.5,66.8,379.7,65.6,377.7z"/>
	</g>
	<line class="st1" x1="54.8" y1="347.1" x2="533.1" y2="347.1"/>
	<text transform="matrix(1.5313 0 0 1 220.4312 320.78)" class="st2 st3">RD</text>
</g>
</svg>
