<?xml version="1.0" encoding="utf-8"?>
<!-- Generator: Adobe Illustrator 25.0.0, SVG Export Plug-In . SVG Version: 6.00 Build 0)  -->
<svg version="1.1" id="Capa_1" xmlns="http://www.w3.org/2000/svg" xmlns:xlink="http://www.w3.org/1999/xlink" x="0px" y="0px"
	 viewBox="0 0 580 580" style="enable-background:new 0 0 580 580;" xml:space="preserve">
<style type="text/css">
	.st0{fill:#DCDEDF;stroke:#000000;stroke-width:13;stroke-miterlimit:10;}
	.st1{fill:none;}
	.st2{font-family:'BritannicBold';}
	.st3{font-size:70px;}
	.st4{fill:none;stroke:#000000;stroke-width:7;stroke-miterlimit:10;}
</style>
<g>
	<path class="st0" d="M295.1,563.5L295.1,563.5c93.8-41.6,251.4-49.1,252.8-144.1c0.7-42.7-38.8-56.1-52.5-108.9
		c-6.3-24.1,27.8-68.7,27.8-68.7l-65.4-31.7c-39.2,16-112.8,25.6-174.6-7.2c-59.7,34.3-133.9,26.4-174,11.4l-63.3,33.2
		c0,0,36.8,43.8,32.1,68c-10.4,53-49,67.5-45.6,110.1c7.4,95,165.4,98.6,261.8,138l0,0"/>
	<rect x="87.7" y="244.8" class="st1" width="395.3" height="51.1"/>
	<text transform="matrix(1.4434 0 0 1 223.189 292.2131)" class="st2 st3">RN</text>
	<line class="st4" x1="76" y1="308.7" x2="494.8" y2="308.7"/>
</g>
</svg>
